<?xml version="1.0" standalone="no"?>
<!DOCTYPE svg PUBLIC "-//W3C//DTD SVG 20010904//EN"
 "http://www.w3.org/TR/2001/REC-SVG-20010904/DTD/svg10.dtd">
<svg version="1.0" xmlns="http://www.w3.org/2000/svg"
 width="256.000000pt" height="256.000000pt" viewBox="0 0 256.000000 256.000000"
 preserveAspectRatio="xMidYMid meet">

<g transform="translate(0.000000,256.000000) scale(0.100000,-0.100000)"
fill="#000000" stroke="none">
<path d="M1095 2174 c-221 -34 -378 -80 -536 -159 -179 -90 -375 -234 -432
-318 -25 -36 -28 -49 -23 -86 11 -82 66 -131 147 -131 50 0 44 -4 213 125 279
213 586 304 927 275 290 -26 541 -130 774 -321 78 -64 109 -79 165 -79 63 0
130 70 130 137 0 126 -343 378 -659 483 -166 56 -265 71 -481 75 -107 2 -208
1 -225 -1z"/>
<path d="M1070 1680 c-162 -29 -305 -86 -435 -173 -86 -58 -192 -163 -206
-204 -30 -92 40 -183 141 -183 51 0 66 8 162 86 91 74 232 146 343 175 101 27
285 29 393 5 137 -30 290 -108 394 -202 45 -40 109 -74 140 -74 37 0 99 42
119 80 23 42 24 101 4 139 -28 56 -210 193 -340 258 -208 105 -462 137 -715
93z"/>
<path d="M1102 1210 c-103 -27 -201 -82 -282 -157 -84 -77 -101 -118 -81 -191
21 -78 66 -112 151 -112 59 0 75 7 149 67 79 64 132 86 226 91 103 5 161 -16
269 -98 77 -58 82 -60 139 -60 99 0 157 54 157 146 0 117 -162 255 -365 310
-97 26 -275 28 -363 4z"/>
<path d="M1188 710 c-57 -31 -82 -73 -86 -151 -5 -83 15 -130 71 -167 52 -35
154 -38 207 -6 126 73 115 275 -17 330 -47 20 -131 17 -175 -6z"/>
</g>
</svg>
